<?xml version="1.0" encoding="utf-8"?>
<!-- Generator: Adobe Illustrator 25.2.1, SVG Export Plug-In . SVG Version: 6.00 Build 0)  -->
<svg version="1.1" id="圖層_1" xmlns="http://www.w3.org/2000/svg" xmlns:xlink="http://www.w3.org/1999/xlink" x="0px" y="0px"
	 viewBox="0 0 80 80" style="enable-background:new 0 0 80 80;" xml:space="preserve">
<style type="text/css">
	.st0{fill:#333333;}
	.st1{fill:#FFC335;}
	.st2{fill:url(#SVGID_1_);stroke:url(#SVGID_2_);stroke-width:0.5578;stroke-miterlimit:10;}
	.st3{fill:url(#SVGID_3_);stroke:url(#SVGID_4_);stroke-width:0.4969;stroke-miterlimit:10;}
</style>
<g>
	<circle class="st0" cx="40" cy="40" r="40"/>
	<path class="st1" d="M12,13.1c4-2.6,8.5-4,13.6-4c3.6,0,6.6,0.8,8.9,2.4c2.3,1.6,3.5,3.7,3.5,6.3c0,3.4-2,5.7-6,6.9v0.3
		c0.4,0.1,0.9,0.2,1.5,0.4c1.9-0.4,3.4-1.3,4.4-2.7s1.6-3,1.6-4.9c0-2.4-1-4.5-3-6.4v-0.2l0.3,0.2c2.2,1.7,3.3,3.9,3.3,6.6
		c0,3.7-1.9,6.3-5.7,7.7c1.7,0.8,2.9,1.8,3.9,3.2c0.9,1.4,1.4,3,1.4,4.7c0,2.5-0.9,4.5-2.7,6c-1.8,1.5-4.2,2.3-7.3,2.3H11.4l3.5-3
		v-11c-1,0-2.2,0.1-3.5,0.3l-0.2-0.7c1.5-0.2,2.7-0.2,3.7-0.2v-1.3h-0.6c-0.9,0-2.1,0.1-3.6,0.2l1.1-2.4l0.4,0
		c0.7,0.1,1.2,0.1,1.5,0.1c0.5,0,0.9,0,1.2,0.1v-9.5L12,13.1z M38.9,28c1.8,1.4,2.7,3.5,2.7,6.4c0,2.9-1,5.2-3,7.1
		c-2,1.8-4.8,2.7-8.6,2.7H12.8l-0.4-0.7h16c3.5,0,6-0.4,7.5-1.1c3.4-1.6,5.1-4.3,5.1-8.3c0-2.2-0.8-4.2-2.3-6L38.9,28z M19.9,12.7
		v11.4c0.2,0,0.3,0,0.4,0h0.5c0.1,0,0.2,0,0.4,0V13.8c1.5-0.7,2.9-1,4.3-1c1.6,0,2.8,0.3,3.8,0.9c0.9,0.6,1.7,1.6,2.3,2.9l-0.7-0.4
		c-1.3-1.9-3.1-2.9-5.4-2.9c-1.3,0-2.5,0.4-3.5,1.1v9.7l1.1,0c3.2,0,5.6-0.5,7.2-1.6c1.6-1.1,2.4-2.7,2.4-4.9c0-1.9-0.7-3.5-2-4.7
		s-3-1.8-5.2-1.8C23.5,11.1,21.7,11.6,19.9,12.7z M19.9,26.2v14h1.3V27.7c1.2-0.1,2.1-0.1,2.6-0.1c2.8,0,4.8,0.3,6.1,0.8
		s2.3,1.5,3,3h-0.3c-0.8-1.2-1.9-2-3.1-2.4c-1.2-0.4-3.1-0.7-5.5-0.7l-2.1,0.1v11.8h0.8l3.7-0.1c4.8-0.3,7.1-2.7,7.1-6.9
		c0-2.7-0.8-4.5-2.4-5.5c-1.6-1-4.5-1.5-8.8-1.5C21.9,26.1,21.1,26.2,19.9,26.2z"/>
	<path class="st1" d="M71.8,31.8c-1.9,1-3.2,1.9-3.7,2.7c-0.8,1.3-1.3,3.2-1.3,5.8v24h-4.3L50.6,41.1v13.8l0,1.1l0.3,3.6
		c0.3,1.7,1.1,2.9,2.3,3.8l0.2,0.2c-2.3-0.8-3.5-3.3-3.5-7.5l0-2.4V39.9l-1.4-2.7v14.6c0,4.6,0.3,7.7,0.9,9.1c0.6,1.4,2,2.5,4.3,3.1
		l2.2,2.4H42.2l-0.4-0.7h12.7l-1.3-1.4H41.4c2.1-0.7,3.4-1.7,4.1-3c0.7-1.3,1-3.4,1-6.4V34.6l-3.4-2.8H56l-3.6,2.4l12.2,23.9v-3
		L54.1,34.6l3.5-2.4l0.5,0.5L55,34.8l9.6,18.9V40.6c0-2.9-0.2-4.9-0.7-5.9c-0.5-1-1.7-1.9-3.5-2.9L71.8,31.8z M72.7,33.7l-0.5,0.8
		c-1.3,0.3-2.2,0.9-2.6,1.7c-0.5,0.8-0.7,2.2-0.7,4.1v26.1h-5.5l-0.3-0.7h5.1V40.5c0-2.4,0.3-4,0.9-5C69.8,34.6,71,34,72.7,33.7
		L72.7,33.7z"/>
	
		<linearGradient id="SVGID_1_" gradientUnits="userSpaceOnUse" x1="15.0378" y1="19.861" x2="35.2173" y2="19.861" gradientTransform="matrix(1 0 0 -1 0 80)">
		<stop  offset="0" style="stop-color:#FFEEA7"/>
		<stop  offset="0.5" style="stop-color:#FDD000"/>
		<stop  offset="1" style="stop-color:#F8B300"/>
	</linearGradient>
	
		<radialGradient id="SVGID_2_" cx="-655.4836" cy="-44.7463" r="325.5396" gradientTransform="matrix(3.113514e-02 0 0 -3.113514e-02 45.5926 59.0006)" gradientUnits="userSpaceOnUse">
		<stop  offset="0" style="stop-color:#FFF7E3"/>
		<stop  offset="0.31" style="stop-color:#DEBD91"/>
		<stop  offset="0.68" style="stop-color:#A66835"/>
		<stop  offset="0.78" style="stop-color:#96501C"/>
		<stop  offset="1" style="stop-color:#5B100E"/>
	</radialGradient>
	<polygon class="st2" points="35.2,65.1 28,64.7 23.6,70.2 21.8,63.4 15,60.9 21.1,57.1 21.4,50.1 27,54.6 33.9,52.7 31.2,59.3 	"/>
	
		<linearGradient id="SVGID_3_" gradientUnits="userSpaceOnUse" x1="47.7418" y1="62.8324" x2="64.413" y2="62.8324" gradientTransform="matrix(1 0 0 -1 0 80)">
		<stop  offset="0" style="stop-color:#FFEEA7"/>
		<stop  offset="0.5" style="stop-color:#FDD000"/>
		<stop  offset="1" style="stop-color:#F8B300"/>
	</linearGradient>
	
		<radialGradient id="SVGID_4_" cx="444.3116" cy="811.2256" r="219.8961" gradientTransform="matrix(4.324324e-02 0 0 -3.459460e-02 37.0893 45.3012)" gradientUnits="userSpaceOnUse">
		<stop  offset="0" style="stop-color:#FFF7E3"/>
		<stop  offset="0.31" style="stop-color:#DEBD91"/>
		<stop  offset="0.68" style="stop-color:#A66835"/>
		<stop  offset="0.78" style="stop-color:#96501C"/>
		<stop  offset="1" style="stop-color:#5B100E"/>
	</radialGradient>
	<ellipse class="st3" cx="56.1" cy="17.2" rx="8.3" ry="8.4"/>
</g>
</svg>
